<?xml version="1.0" standalone="no"?>
<!DOCTYPE svg PUBLIC "-//W3C//DTD SVG 1.1//EN" "http://www.w3.org/Graphics/SVG/1.1/DTD/svg11.dtd" >
<svg xmlns="http://www.w3.org/2000/svg" xmlns:xlink="http://www.w3.org/1999/xlink" version="1.1">
<metadata></metadata>
<defs>
<font id="intel_clear_wlatitalic" horiz-adv-x="1216" >
<font-face units-per-em="2048" ascent="1579" descent="-469" />
<missing-glyph horiz-adv-x="499" />
<glyph horiz-adv-x="0" />
<glyph horiz-adv-x="682" />
<glyph horiz-adv-x="0" />
<glyph horiz-adv-x="0" />
<glyph unicode=" "  horiz-adv-x="499" />
<glyph unicode="&#x09;" horiz-adv-x="499" />
<glyph unicode="&#xa0;" horiz-adv-x="499" />
<glyph unicode="!" horiz-adv-x="528" d="M70 0l41 233h208l-40 -233h-209zM164 403l162 1010h194l-196 -1010h-160z" />
<glyph unicode="&#x22;" horiz-adv-x="710" d="M190 903l70 510h186l-106 -510h-150zM509 903l70 510h186l-106 -510h-150z" />
<glyph unicode="#" d="M31 365l22 131h230l123 395h-228l23 131h243l113 364h152l-113 -364h297l113 364h151l-113 -364h209l-22 -131h-225l-123 -395h221l-23 -131h-239l-113 -365h-151l112 365h-297l-112 -365h-152l113 365h-211zM434 496h297l123 395h-297z" />
<glyph unicode="$" d="M63 162l91 114q72 -61 153.5 -96t173.5 -45l90 522l-84 31q-55 20 -101 52t-81 73t-54.5 90t-19.5 105q0 96 38 168.5t102.5 124t150.5 79t183 31.5l36 209h133l-36 -213q90 -10 174 -42t157 -85l-75 -119q-72 45 -138.5 68.5t-144.5 32.5l-86 -498l88 -33 q53 -20 100.5 -50t83 -70t57 -90t21.5 -109q0 -100 -39 -178t-104.5 -131.5t-154.5 -83t-189 -33.5l-39 -219h-133l39 223q-219 25 -392 172zM406 1026q0 -74 45 -125t116 -78l33 -12l78 453q-55 -4 -104.5 -20.5t-87 -45.5t-59 -72t-21.5 -100zM612 133q59 4 111.5 21.5 t91.5 48t61.5 77t22.5 107.5q0 78 -44 130t-122 81l-37 12z" />
<glyph unicode="%" horiz-adv-x="1906" d="M168 895q0 96 23.5 188t71.5 164t118.5 116t165.5 44q147 0 225 -89t78 -237q0 -96 -24.5 -188t-72 -164t-118 -116t-164.5 -44q-147 0 -225 89t-78 237zM334 889q0 -86 33.5 -135.5t107.5 -49.5q59 0 99 38t64.5 95.5t35 124t10.5 125.5q0 86 -33.5 135.5t-107.5 49.5 q-59 0 -99.5 -38t-65 -95.5t-34.5 -125t-10 -124.5zM432 0l919 1386h187l-920 -1386h-186zM1118 305q0 96 23.5 188t71.5 164t118.5 116t165.5 44q147 0 225 -89t78 -237q0 -96 -24.5 -188t-72 -164t-118 -116t-164.5 -44q-147 0 -225 89t-78 237zM1284 299 q0 -86 33.5 -135.5t107.5 -49.5q59 0 99 38t64.5 95.5t35 124t10.5 125.5q0 86 -33.5 135.5t-107.5 49.5q-59 0 -99.5 -38t-65 -95.5t-34.5 -125t-10 -124.5z" />
<glyph unicode="&#x26;" horiz-adv-x="1323" d="M59 322q0 88 30 158.5t82 126t121.5 99.5t151.5 80q-53 72 -90 149t-37 152q0 80 29 144.5t80 111t120.5 72t151.5 25.5q70 0 129.5 -19.5t103.5 -56.5t68.5 -89t24.5 -116q0 -78 -27.5 -141.5t-75 -115.5t-110.5 -94t-135 -75l258 -356q53 74 94 157.5t74 170.5l143 -62 q-41 -109 -95 -208t-124 -185l182 -250h-192l-101 137q-88 -78 -192.5 -121t-230.5 -43q-88 0 -167 21.5t-137.5 64.5t-93.5 108.5t-35 154.5zM244 342q0 -57 20.5 -98t56 -66.5t85 -38t106.5 -12.5q94 0 172 36t143 95l-301 414q-57 -25 -108 -55.5t-90 -70.5t-61.5 -90 t-22.5 -114zM487 1092q0 -59 33 -125t72 -119q53 23 101 50.5t84 63t56.5 83t20.5 108.5q0 70 -43 110t-117 40q-92 0 -149.5 -56.5t-57.5 -154.5z" />
<glyph unicode="'" horiz-adv-x="391" d="M190 903l70 510h186l-106 -510h-150z" />
<glyph unicode="(" horiz-adv-x="577" d="M96 272q0 164 30 329t85 322.5t137 303t187 268.5h184q-217 -287 -324.5 -592t-107.5 -645q0 -147 23.5 -290.5t76.5 -303.5h-164q-66 145 -96.5 297t-30.5 311z" />
<glyph unicode=")" horiz-adv-x="577" d="M-119 -336q217 287 324.5 592t107.5 645q0 147 -23.5 290.5t-76.5 303.5h164q66 -145 96.5 -296.5t30.5 -311.5q0 -164 -30 -329t-85 -322.5t-137 -303t-186 -268.5h-185z" />
<glyph unicode="*" horiz-adv-x="780" d="M176 1116l60 141l206 -110l27 266h162l-68 -264l209 94l43 -137l-240 -68l148 -221l-137 -74l-109 228l-182 -230l-115 99l209 204z" />
<glyph unicode="+" d="M172 608l27 152h366l70 391h172l-70 -391h367l-27 -152h-366l-70 -391h-172l70 391h-367z" />
<glyph unicode="," horiz-adv-x="438" d="M-23 -289q104 139 134 289h-86l41 233h208l-26 -151q-23 -129 -63 -235.5t-107 -196.5z" />
<glyph unicode="-" horiz-adv-x="794" d="M84 449l29 167h606l-29 -167h-606z" />
<glyph unicode="." horiz-adv-x="438" d="M25 0l41 233h208l-41 -233h-208z" />
<glyph unicode="/" horiz-adv-x="772" d="M-129 -336l860 1831h193l-861 -1831h-192z" />
<glyph unicode="0" d="M111 504q0 160 36.5 321.5t112.5 291.5t191.5 213t273.5 83q115 0 199 -40t138 -110.5t80.5 -168t26.5 -211.5q0 -106 -16 -215t-49 -209.5t-83 -189.5t-118.5 -154.5t-156 -103.5t-191.5 -38q-117 0 -201 40t-138 112t-79.5 168t-25.5 211zM301 494q0 -72 13.5 -136.5 t44 -113.5t80.5 -78t124 -29q76 0 136.5 36t106.5 94.5t79 136t53 161.5t30.5 169t10.5 159q0 72 -13.5 136.5t-44 113.5t-80.5 77.5t-124 28.5q-76 0 -135.5 -34.5t-106.5 -93t-80 -136.5t-53 -162t-30.5 -169t-10.5 -160z" />
<glyph unicode="1" d="M289 1145l524 241h137l-243 -1386h-183l205 1167l-369 -168z" />
<glyph unicode="2" d="M68 0l18 104q29 162 107.5 268.5t218.5 192.5l272 168q51 31 94 62.5t75 68.5t49.5 82t17.5 103q0 106 -66 157t-176 51q-92 0 -176 -30.5t-160 -83.5l-78 123q90 66 209 106.5t229 40.5q86 0 160 -21.5t128 -64.5t85 -106.5t31 -149.5q0 -84 -24.5 -149.5t-67.5 -121 t-103.5 -101.5t-132.5 -91l-278 -172q-90 -57 -143.5 -117.5t-82.5 -154.5h664l-29 -164h-841z" />
<glyph unicode="3" d="M72 131l86 125q68 -61 159 -94t191 -33q145 0 229 77t84 218q0 51 -21.5 89t-58 63.5t-84 38t-98.5 12.5h-192l26 153h187q143 0 220 70t77 201q0 98 -68 152t-184 54q-88 0 -168 -26.5t-154 -73.5l-76 125q94 61 204 96t218 35q86 0 161 -21.5t130 -63.5t87 -105.5 t32 -149.5q0 -139 -70.5 -237.5t-189.5 -135.5q100 -37 153.5 -107.5t53.5 -174.5t-38 -186t-105.5 -139.5t-160 -88.5t-198.5 -31q-123 0 -238.5 42t-193.5 116z" />
<glyph unicode="4" d="M72 309l26 146l807 931h176l-161 -923h192l-29 -154h-190l-55 -309h-174l53 309h-645zM303 463h442l113 643z" />
<glyph unicode="5" d="M92 133l90 123q66 -61 152 -94t178 -33q80 0 142.5 26.5t105.5 73.5t66.5 112t23.5 142q0 117 -70.5 177.5t-191.5 60.5q-76 0 -134.5 -23.5t-117.5 -70.5l-111 61l183 698h714l-26 -153h-564l-112 -430q51 35 112.5 53t120.5 18q88 0 159 -26.5t120 -74.5t75.5 -116.5 t26.5 -150.5q0 -119 -39 -216t-108.5 -168t-166.5 -110t-214 -39t-224.5 40t-189.5 120z" />
<glyph unicode="6" d="M147 487q0 178 43 345t131.5 296t220.5 207t308 78q98 0 189 -28.5t155 -84.5l-82 -118q-61 41 -127.5 58t-144.5 17q-113 0 -198 -43t-145.5 -115.5t-98.5 -171t-56 -208.5q59 92 157.5 141t215.5 49q86 0 157.5 -26.5t124 -75.5t81 -120t28.5 -157q0 -115 -36 -215 t-102.5 -177t-159.5 -121t-206 -44q-115 0 -201 38t-142 105.5t-84 162t-28 208.5zM328 414q0 -129 76.5 -208t201.5 -79q76 0 135.5 31.5t99.5 85t60.5 122t20.5 144.5q0 117 -70 181.5t-193 64.5q-72 0 -133 -27t-105 -73t-68.5 -108.5t-24.5 -133.5z" />
<glyph unicode="7" d="M225 0l748 1223h-729l28 163h936l-24 -139l-752 -1247h-207z" />
<glyph unicode="8" d="M106 348q0 76 24 141.5t66 115.5t100 84t130 46q-76 37 -119 106.5t-43 166.5q0 90 35 164.5t96.5 128t142 83t173.5 29.5q84 0 157.5 -22.5t129 -66.5t88 -107.5t32.5 -145.5q0 -133 -72.5 -234.5t-191.5 -136.5q94 -35 151.5 -110.5t57.5 -183.5q0 -102 -38 -183.5 t-104.5 -136.5t-156.5 -84t-195 -29q-92 0 -176 23.5t-147.5 71t-101.5 117t-38 163.5zM291 356q0 -59 22.5 -102t61.5 -71.5t90 -42t108 -13.5q141 0 223.5 73.5t82.5 213.5q0 61 -22.5 104t-60.5 70.5t-89.5 41t-108.5 13.5q-141 0 -224 -74.5t-83 -212.5zM446 991 q0 -100 61.5 -152.5t162.5 -52.5q123 0 194.5 72t71.5 195q0 100 -62.5 153.5t-162.5 53.5q-123 0 -194 -73t-71 -196z" />
<glyph unicode="9" d="M100 100l84 123q61 -47 138 -70.5t153 -23.5q104 0 182 46t132.5 121t89 172t55.5 200q-53 -96 -148.5 -150.5t-214.5 -54.5q-84 0 -153.5 28.5t-118.5 80t-76.5 123t-27.5 155.5q0 113 35.5 215t101 179t159 123t207.5 46q111 0 192 -38t134 -105.5t78.5 -159.5 t25.5 -201q0 -172 -38.5 -340t-119.5 -300t-207 -214t-300 -82q-92 0 -192.5 34t-170.5 93zM379 866q0 -113 63.5 -182.5t173.5 -69.5q72 0 133.5 30t105.5 81t68.5 118.5t24.5 141.5q0 123 -67.5 199t-188.5 76q-78 0 -136 -33t-97 -87.5t-59.5 -126t-20.5 -147.5z" />
<glyph unicode=":" horiz-adv-x="438" d="M25 0l41 233h208l-41 -233h-208zM164 791l41 233h208l-41 -233h-208z" />
<glyph unicode=";" horiz-adv-x="438" d="M-23 -289q104 139 134 289h-86l41 233h208l-26 -151q-23 -129 -63 -235.5t-107 -196.5zM164 791l41 233h208l-41 -233h-208z" />
<glyph unicode="&#x3c;" d="M193 627l24 139l946 408l-30 -173l-750 -311l639 -311l-29 -162z" />
<glyph unicode="=" d="M162 379l26 153h848l-26 -153h-848zM242 831l26 154h848l-26 -154h-848z" />
<glyph unicode="&#x3e;" d="M119 217l31 172l747 309l-637 314l29 162l801 -410l-25 -139z" />
<glyph unicode="?" horiz-adv-x="976" d="M160 1288q94 74 206.5 113t235.5 39q78 0 148.5 -18.5t125 -56.5t86 -95.5t31.5 -132.5q0 -80 -22.5 -139.5t-62.5 -106.5t-95 -88t-121 -86q-43 -29 -69.5 -55.5t-44 -57.5t-29.5 -69.5t-25 -92.5l-8 -34h-164q0 141 61.5 240.5t174.5 174.5q45 31 85 60.5t69.5 63.5 t47 74t17.5 93q0 84 -62.5 127t-173.5 43q-96 0 -177 -30.5t-158 -88.5zM276 0l41 233h209l-41 -233h-209z" />
<glyph unicode="@" horiz-adv-x="1941" d="M86 334q0 223 69.5 416.5t197.5 338t309.5 227.5t404.5 83q172 0 317.5 -47t251 -138.5t165 -224.5t59.5 -303q0 -113 -28 -229.5t-84 -213t-142 -157.5t-201 -61q-98 0 -159.5 51t-65.5 135q-49 -86 -135.5 -136t-180.5 -50q-76 0 -136 25.5t-103 71.5t-65.5 111.5 t-22.5 145.5q0 109 28.5 209t84 178t137 125t190.5 47q104 0 175 -44t101 -124l15 84q6 31 23.5 45t51.5 14h91l-105 -589q-2 -10 -4 -26.5t-2 -29.5q0 -51 24.5 -80.5t73.5 -29.5q74 0 127.5 52t86 131t48 169t15.5 166q0 141 -47 247.5t-131 178.5t-203 108.5t-262 36.5 q-188 0 -337 -70.5t-251 -193.5t-156.5 -288t-54.5 -353q0 -152 47 -268.5t134 -194.5t209 -118t274 -40q119 0 229.5 24t212.5 79l61 -131q-123 -68 -258 -95.5t-274 -27.5q-178 0 -326.5 52t-255 150.5t-165 241t-58.5 320.5zM707 397q0 -102 51 -161.5t155 -59.5 q70 0 124.5 34t92 89t58 124t20.5 138q0 106 -52.5 165.5t-156.5 59.5q-76 0 -131 -32.5t-91 -87t-53 -124t-17 -145.5z" />
<glyph unicode="A" horiz-adv-x="1292" d="M-66 0l773 1413h194l277 -1413h-189l-71 393h-584l-207 -393h-193zM418 547h475l-123 663z" />
<glyph unicode="B" horiz-adv-x="1247" d="M90 0l248 1413h399q88 0 167 -19.5t139.5 -60.5t95.5 -105.5t35 -152.5q0 -135 -74 -222t-191 -128q100 -29 165 -95.5t65 -180.5q0 -117 -44 -202t-121 -139.5t-179.5 -81t-219.5 -26.5h-485zM297 158h270q80 0 149.5 14t122 47t82 87t29.5 134q0 51 -20.5 89t-56 62.5 t-84 36t-101.5 11.5h-305zM410 793h235q72 0 134.5 15t108.5 48t72.5 85t26.5 124q0 55 -22.5 92t-60.5 58.5t-87 30.5t-102 9h-223z" />
<glyph unicode="C" horiz-adv-x="1294" d="M143 575q0 180 51.5 338t147.5 276t237.5 186.5t321.5 68.5q115 0 215.5 -32t175.5 -101l-94 -133q-68 53 -141.5 74.5t-157.5 21.5q-141 0 -245.5 -55.5t-174 -149.5t-104.5 -219t-35 -266q0 -211 104.5 -328t311.5 -117q86 0 168 29t147 80l86 -139 q-88 -66 -198.5 -103t-223.5 -37q-141 0 -251.5 42t-185.5 120t-115 190.5t-40 253.5z" />
<glyph unicode="D" horiz-adv-x="1398" d="M90 0l248 1413h395q135 0 243.5 -40t185.5 -113.5t119 -180t42 -239.5q0 -195 -51 -349.5t-151.5 -264t-249 -168t-341.5 -58.5h-440zM305 158h230q158 0 270.5 47t184 136t104 216t32.5 285q0 190 -104 301.5t-293 111.5h-231z" />
<glyph unicode="E" horiz-adv-x="1150" d="M90 0l248 1413h876l-28 -158h-686l-82 -464h581l-28 -158h-582l-84 -475h699l-29 -158h-885z" />
<glyph unicode="F" horiz-adv-x="1089" d="M90 0l248 1413h836l-29 -158h-645l-86 -485h547l-29 -158h-547l-106 -612h-189z" />
<glyph unicode="G" horiz-adv-x="1372" d="M143 573q0 184 53.5 344t154 277t246.5 183.5t333 66.5q115 0 222.5 -33t184.5 -100l-92 -133q-66 49 -148.5 72.5t-172.5 23.5q-145 0 -255 -53.5t-182.5 -147.5t-109.5 -220t-37 -273q0 -225 113.5 -333t339.5 -108q53 0 106 9.5t98 25.5l68 389h-317l28 152h494 l-117 -664q-76 -37 -176 -59.5t-205 -22.5q-299 0 -464 156t-165 448z" />
<glyph unicode="H" horiz-adv-x="1409" d="M90 0l248 1413h188l-108 -618h672l108 618h188l-247 -1413h-189l113 637h-672l-112 -637h-189z" />
<glyph unicode="I" horiz-adv-x="548" d="M90 0l248 1413h188l-247 -1413h-189z" />
<glyph unicode="J" horiz-adv-x="997" d="M-35 102l90 131q59 -51 127 -73.5t146 -22.5q70 0 120 22.5t84.5 62.5t56 95.5t34.5 122.5l172 973h188l-174 -987q-18 -102 -56 -187t-97.5 -144.5t-142.5 -92.5t-189 -33q-104 0 -195.5 33t-163.5 100z" />
<glyph unicode="K" horiz-adv-x="1255" d="M90 0l248 1413h188l-106 -610h35q41 0 64.5 17.5t47.5 43.5l543 549h236l-687 -680l494 -733h-225l-373 569q-25 39 -51.5 61.5t-75.5 22.5h-35l-114 -653h-189z" />
<glyph unicode="L" horiz-adv-x="1062" d="M90 0l248 1413h188l-221 -1255h653l-26 -158h-842z" />
<glyph unicode="M" horiz-adv-x="1669" d="M90 0l248 1413h194l308 -846l608 846h199l-248 -1413h-180l194 1106l-528 -737h-150l-270 743l-195 -1112h-180z" />
<glyph unicode="N" horiz-adv-x="1411" d="M90 0l248 1413h201l469 -1151l200 1151h181l-248 -1413h-201l-469 1141l-201 -1141h-180z" />
<glyph unicode="O" horiz-adv-x="1531" d="M143 575q0 172 48.5 329t141.5 276.5t228 191.5t307 72q137 0 247 -43t185.5 -123t115.5 -192.5t40 -249.5q0 -172 -49 -329t-142.5 -276.5t-228.5 -190.5t-307 -71q-137 0 -245.5 43t-184.5 122t-116 190.5t-40 250.5zM340 569q0 -203 102 -316.5t301 -113.5 q133 0 230.5 61.5t161 161t94.5 226.5t31 256q0 201 -102.5 315.5t-301.5 114.5q-131 0 -228.5 -60.5t-161 -160t-95 -226.5t-31.5 -258z" />
<glyph unicode="P" horiz-adv-x="1236" d="M90 0l248 1413h432q94 0 176 -24.5t142.5 -73.5t94.5 -121t34 -166q0 -123 -41 -217t-116 -159.5t-178.5 -99.5t-226.5 -34h-286l-90 -518h-189zM397 676h252q178 0 278.5 88t100.5 256q0 59 -20.5 103t-57.5 74t-87 44t-107 14h-258z" />
<glyph unicode="Q" horiz-adv-x="1531" d="M143 575q0 172 48.5 329t141.5 276.5t228 191.5t307 72q137 0 247 -43t185.5 -123t115.5 -192.5t40 -249.5q0 -129 -28.5 -252t-85 -228.5t-140.5 -189.5t-194 -133l358 -142l-68 -141l-452 189q-33 14 -59.5 22t-57.5 8q-137 0 -245.5 43t-184.5 122t-116 190.5 t-40 250.5zM340 569q0 -203 102 -316.5t301 -113.5q133 0 230.5 61.5t161 161t94.5 226.5t31 256q0 203 -102.5 316.5t-301.5 113.5q-131 0 -228.5 -60.5t-161 -160t-95 -226.5t-31.5 -258z" />
<glyph unicode="R" horiz-adv-x="1210" d="M90 0l248 1413h414q92 0 172 -23.5t140 -68.5t94 -112.5t34 -153.5q0 -96 -32 -173t-88 -134.5t-133 -92t-167 -49.5l320 -606h-213l-256 518q-16 35 -39 51.5t-66 16.5h-145l-103 -586h-180zM399 739h236q80 0 147.5 18.5t116.5 55.5t77 95.5t28 138.5q0 98 -73 153 t-196 55h-243z" />
<glyph unicode="S" horiz-adv-x="1193" d="M51 150l96 129q86 -76 182.5 -111t217.5 -35q66 0 125 15.5t104 46t71.5 79t26.5 115.5q0 80 -46 131t-126 82l-239 94q-113 45 -180.5 129t-67.5 195q0 104 42 184t112.5 133.5t165 80t198.5 26.5q123 0 229.5 -33t200.5 -106l-82 -129q-82 57 -163.5 80.5t-192.5 23.5 q-66 0 -123 -13.5t-102 -43t-71 -74.5t-26 -109q0 -72 46.5 -122t121.5 -78l236 -92q119 -47 188.5 -133.5t69.5 -200.5q0 -109 -41 -192t-111.5 -139t-167 -85t-204.5 -29q-143 0 -264 44t-226 137z" />
<glyph unicode="T" d="M170 1255l29 158h1134l-28 -158h-471l-222 -1255h-188l221 1255h-475z" />
<glyph unicode="U" horiz-adv-x="1415" d="M174 438q0 86 14 170l142 805h188l-145 -838q-12 -68 -13 -129q0 -158 77 -232.5t235 -74.5q96 0 162.5 32t112.5 90t74 137t44 175l147 840h189l-158 -897q-23 -123 -68 -224.5t-116.5 -173t-169.5 -110.5t-225 -39q-233 0 -361.5 120t-128.5 349z" />
<glyph unicode="V" horiz-adv-x="1290" d="M182 1413h191l217 -1212l633 1212h200l-768 -1413h-196z" />
<glyph unicode="W" horiz-adv-x="1890" d="M195 1413h192l98 -1202l502 1104h195l112 -1110l523 1208h194l-653 -1413h-199l-121 1073l-489 -1073h-201z" />
<glyph unicode="X" horiz-adv-x="1269" d="M-61 0l628 737l-340 676h197l262 -541l461 541h211l-596 -688l389 -725h-201l-307 586l-487 -586h-217z" />
<glyph unicode="Y" horiz-adv-x="1220" d="M190 1413h195l256 -706l500 706h205l-639 -872l-95 -541h-188l96 551z" />
<glyph unicode="Z" horiz-adv-x="1181" d="M-16 0l26 154l1004 1101h-758l27 158h991l-27 -153l-1001 -1098h801l-29 -162h-1034z" />
<glyph unicode="[" horiz-adv-x="671" d="M23 -336l321 1831h471l-27 -147h-290l-273 -1536h291l-27 -148h-466z" />
<glyph unicode="\" horiz-adv-x="772" d="M193 1495h176l233 -1831h-176z" />
<glyph unicode="]" horiz-adv-x="671" d="M-121 -336l27 148h291l272 1536h-291l27 147h467l-322 -1831h-471z" />
<glyph unicode="^" d="M135 606l557 795h144l278 -795h-176l-199 598l-413 -598h-191z" />
<glyph unicode="_" horiz-adv-x="1024" d="M-166 -430l27 145h1024l-27 -145h-1024z" />
<glyph unicode="`" horiz-adv-x="1024" d="M481 1528h207l152 -326h-164z" />
<glyph unicode="a" horiz-adv-x="1204" d="M90 389q0 125 33 244t97.5 212t159.5 149.5t220 56.5q121 0 206 -48.5t126 -146.5l16 94q6 37 27.5 55.5t64.5 18.5h95l-181 -1024h-92q-41 0 -57.5 19.5t-9.5 54.5l14 86q-59 -86 -150.5 -136.5t-199.5 -50.5q-90 0 -160 32t-116 88.5t-69.5 132t-23.5 163.5zM276 408 q0 -129 62.5 -205t187.5 -76q86 0 154 44t113 114.5t68.5 157.5t23.5 173q0 133 -62.5 207t-189.5 74q-92 0 -159.5 -43t-111 -111.5t-65 -156.5t-21.5 -178z" />
<glyph unicode="b" horiz-adv-x="1206" d="M70 0l260 1468h178l-105 -591q59 80 148.5 127t193.5 47q90 0 160 -32t117 -88.5t70.5 -132t23.5 -163.5q0 -125 -32.5 -244t-97 -212t-161 -149.5t-221.5 -56.5q-129 0 -213 51.5t-121 145.5l-16 -96q-12 -74 -96 -74h-88zM319 408q0 -133 62.5 -207t189.5 -74 q92 0 160 42t112 111.5t65.5 157.5t21.5 178q0 129 -63.5 205t-188.5 76q-86 0 -152.5 -44t-112.5 -114.5t-70 -157.5t-24 -173z" />
<glyph unicode="c" horiz-adv-x="985" d="M94 416q0 133 41 248.5t116 201.5t181.5 135.5t237.5 49.5q84 0 155.5 -23.5t137.5 -77.5l-80 -121q-51 35 -105.5 51.5t-115.5 16.5q-92 0 -164 -39t-120 -104.5t-72.5 -149.5t-24.5 -176q0 -147 75.5 -224t223.5 -77q59 0 113.5 18.5t103.5 51.5l67 -125 q-139 -98 -317 -99q-104 0 -187.5 31t-142.5 88.5t-91 139t-32 184.5z" />
<glyph unicode="d" horiz-adv-x="1204" d="M90 389q0 125 33 244t97.5 212t159.5 149.5t220 56.5q123 0 206 -48.5t122 -140.5l108 606h178l-260 -1468h-92q-39 0 -56.5 19.5t-10.5 54.5l14 86q-59 -86 -150.5 -136.5t-199.5 -50.5q-90 0 -159 32t-116 87t-70.5 131t-23.5 166zM276 408q0 -129 62.5 -205t187.5 -76 q86 0 154 44t113 114.5t68.5 157.5t23.5 173q0 133 -62.5 207t-189.5 74q-92 0 -159.5 -43t-111 -111.5t-65 -156.5t-21.5 -178z" />
<glyph unicode="e" horiz-adv-x="1077" d="M94 424q0 125 37 238.5t105.5 199.5t168 137.5t224.5 51.5q174 0 273 -99.5t99 -269.5q0 -111 -34 -213h-697v-37q0 -154 84 -229.5t234 -75.5q135 0 248 82l73 -121q-74 -55 -163 -85t-189 -30q-215 0 -339 120t-124 331zM295 606h530q12 45 13 90q0 100 -60 152.5 t-160 52.5q-66 0 -117.5 -22.5t-92.5 -62.5t-70 -94t-43 -116z" />
<glyph unicode="f" horiz-adv-x="655" d="M104 879l27 145h168l20 109q33 178 125.5 260t268.5 82q27 0 56.5 -3.5t51.5 -9.5l-24 -137h-47q-66 0 -110 -11t-72.5 -36t-46 -66t-27.5 -100l-17 -88h268l-26 -145h-266l-156 -879h-178l155 879h-170z" />
<glyph unicode="g" horiz-adv-x="1206" d="M53 -336l70 127q78 -49 154.5 -71.5t168.5 -22.5q80 0 137.5 23.5t97.5 67.5t64.5 106.5t38.5 142.5l23 127q-59 -80 -150.5 -127t-195.5 -47q-90 0 -160 30.5t-116 86t-69.5 130t-23.5 162.5q0 125 33 242t97.5 208t159.5 146.5t220 55.5q123 0 208 -48.5t124 -144.5 l16 92q12 74 94 74h93l-170 -965q-20 -121 -60.5 -216t-103 -160.5t-152.5 -101.5t-211 -36q-223 0 -387 119zM279 418q0 -129 62 -202t187 -73q86 0 154 43t113 112t68.5 155t23.5 170q0 131 -63.5 202.5t-188.5 71.5q-92 0 -158.5 -41t-110.5 -108.5t-65.5 -153.5 t-21.5 -176z" />
<glyph unicode="h" horiz-adv-x="1177" d="M70 0l258 1468h178l-103 -591q57 80 142.5 127t187.5 47q150 0 235 -83t85 -231q0 -51 -11 -108l-110 -629h-178l110 629q4 25 6 43t2 41q0 184 -192 184q-70 0 -126 -29.5t-99 -79t-71 -113t-40 -128.5l-96 -547h-178z" />
<glyph unicode="i" horiz-adv-x="497" d="M70 0l180 1024h178l-180 -1024h-178zM283 1229l34 205h187l-35 -205h-186z" />
<glyph unicode="j" horiz-adv-x="497" d="M-170 -432l25 137h36q78 0 108 26.5t42 100.5l209 1192h178l-211 -1202q-12 -72 -33.5 -123t-57.5 -83t-87 -46t-123 -14q-23 0 -45.5 3t-40.5 9zM283 1229l34 205h187l-35 -205h-186z" />
<glyph unicode="k" horiz-adv-x="1058" d="M70 0l260 1468h178l-150 -841q78 4 126 28.5t102 79.5l282 289h215l-376 -379q-37 -37 -76 -67l330 -578h-203l-277 506q-35 -8 -72.5 -12.5t-74.5 -6.5l-86 -487h-178z" />
<glyph unicode="l" horiz-adv-x="577" d="M106 188q0 41 9 88l209 1192h178l-209 -1189q-6 -37 -6 -60q0 -47 29.5 -63.5t95.5 -16.5h14l-25 -139q-41 -10 -77 -10q-104 0 -161 48t-57 150z" />
<glyph unicode="m" horiz-adv-x="1761" d="M70 0l180 1024h94q39 0 56.5 -19.5t11.5 -54.5l-13 -67q55 74 134 121t178 47q117 0 186.5 -57.5t91.5 -155.5q55 92 145.5 152.5t206.5 60.5q141 0 218 -84t77 -226q0 -29 -3 -53t-9 -57l-111 -631h-178l109 616q8 47 8 95q0 86 -42 136t-130 50q-61 0 -111.5 -29.5 t-88.5 -79t-63.5 -111t-37.5 -124.5l-98 -553h-179l109 614q4 25 7 48.5t3 48.5q0 88 -43 137t-131 49q-61 0 -111.5 -29.5t-89 -79t-63.5 -111t-37 -124.5l-98 -553h-178z" />
<glyph unicode="n" horiz-adv-x="1177" d="M70 0l180 1024h94q39 0 56.5 -19.5t11.5 -54.5l-15 -80q57 78 143.5 129.5t192.5 51.5q150 0 235 -83t85 -231q0 -51 -11 -108l-110 -629h-178l110 629q4 25 6 43t2 41q0 184 -192 184q-70 0 -126 -29.5t-99 -79t-71 -113t-40 -128.5l-96 -547h-178z" />
<glyph unicode="o" horiz-adv-x="1179" d="M94 422q0 127 38 240.5t108.5 199.5t172 137.5t228.5 51.5q102 0 184 -32t140.5 -90.5t89 -141t30.5 -185.5q0 -125 -37.5 -238.5t-108.5 -200.5t-172 -138.5t-226 -51.5q-102 0 -184.5 32t-140.5 90.5t-90 141t-32 185.5zM281 418q0 -131 70.5 -211t195.5 -80 q88 0 153.5 41t109.5 108.5t66.5 153.5t22.5 176q0 133 -69.5 212t-194.5 79q-90 0 -156.5 -41t-110.5 -108.5t-65.5 -153.5t-21.5 -176z" />
<glyph unicode="p" horiz-adv-x="1208" d="M-6 -430l256 1454h90q39 0 57.5 -19.5t12.5 -54.5l-15 -86q59 86 151.5 136.5t201.5 50.5q90 0 158.5 -32t115.5 -87t71.5 -132t24.5 -165q0 -125 -32.5 -244t-97 -212t-161 -149.5t-221.5 -56.5t-208 48.5t-122 138.5l-104 -590h-178zM319 408q0 -129 62.5 -205 t191.5 -76q92 0 160 42t112 111.5t65.5 157.5t21.5 178q0 129 -63.5 205t-188.5 76q-84 0 -151.5 -44t-113.5 -113.5t-71 -156.5t-25 -175z" />
<glyph unicode="q" horiz-adv-x="1204" d="M90 389q0 125 33 244t97.5 212t159.5 149.5t220 56.5q123 0 208 -51.5t124 -143.5l16 94q6 37 27.5 55.5t64.5 18.5h95l-256 -1454h-179l103 580q-59 -82 -149.5 -129.5t-194.5 -47.5q-90 0 -160 32t-116 88.5t-69.5 132t-23.5 163.5zM276 408q0 -129 62.5 -205 t187.5 -76q86 0 154 44t113 114.5t68.5 157.5t23.5 173q0 131 -61.5 206t-190.5 75q-92 0 -159.5 -43t-111 -111.5t-65 -156.5t-21.5 -178z" />
<glyph unicode="r" horiz-adv-x="727" d="M70 0l180 1024h94q39 0 56.5 -19.5t11.5 -54.5l-17 -96q53 84 135 134t189 50q27 0 49.5 -4t32.5 -8l-25 -145h-65q-84 0 -147.5 -29t-109.5 -81t-76 -122.5t-44 -154.5l-86 -494h-178z" />
<glyph unicode="s" horiz-adv-x="929" d="M29 113l84 123q59 -53 137 -82t162 -29q102 0 157.5 42t55.5 126q0 47 -30 80t-81 53l-170 70q-90 37 -140 96t-50 141q0 80 31.5 140.5t86 99.5t127 58.5t152.5 19.5q86 0 170 -27t153 -78l-67 -125q-61 41 -122.5 60.5t-141.5 19.5q-43 0 -82 -8t-69 -26.5t-47 -47 t-17 -69.5q0 -47 31.5 -77t76.5 -48l164 -70q88 -37 144.5 -98.5t56.5 -147.5q0 -84 -30 -146.5t-83 -104.5t-126 -63.5t-156 -21.5q-100 0 -197.5 35t-179.5 105z" />
<glyph unicode="t" horiz-adv-x="712" d="M109 879l26 145h170l45 258h178l-45 -258h248l-26 -145h-248l-95 -539q-8 -47 -8 -82q0 -39 13.5 -61.5t38 -34.5t58.5 -16.5t77 -4.5h51l-25 -137q-20 -6 -51 -9t-59 -3q-141 0 -213 53t-72 182q0 27 4 58.5t8 56.5l95 537h-170z" />
<glyph unicode="u" horiz-adv-x="1157" d="M123 289q0 29 2 54.5t8 64.5l109 616h178l-107 -606q-10 -57 -10 -103q0 -188 195 -188q68 0 122 31.5t94 84t64.5 116t36.5 128.5l94 537h178l-180 -1024h-90q-39 0 -57.5 19.5t-11.5 54.5l14 80q-53 -82 -135 -131.5t-187 -49.5q-154 0 -235.5 83t-81.5 233z" />
<glyph unicode="v" horiz-adv-x="1028" d="M111 1024h180l158 -848l462 848h187l-584 -1024h-182z" />
<glyph unicode="w" horiz-adv-x="1470" d="M115 1024h182l68 -831l368 751h174l84 -758l363 838h182l-489 -1024h-175l-96 731l-362 -731h-174z" />
<glyph unicode="x" horiz-adv-x="964" d="M-74 0l463 532l-256 492h186l187 -375l307 375h203l-434 -510l276 -514h-190l-205 395l-334 -395h-203z" />
<glyph unicode="y" horiz-adv-x="1028" d="M-33 -432l25 137h55q45 0 76 9.5t54.5 31t45 54t47.5 79.5l64 111l-223 1034h180l158 -848l462 848h187l-676 -1186q-41 -72 -76 -125t-75 -88t-90 -52t-122 -17q-53 0 -92 12z" />
<glyph unicode="z" horiz-adv-x="972" d="M-16 0l26 150l738 729h-590l26 145h801l-27 -150l-731 -724h609l-27 -150h-825z" />
<glyph unicode="{" horiz-adv-x="757" d="M61 510l25 141h55q43 0 72 4t47.5 17.5t29.5 37t17 60.5l70 385q29 164 129 253t262 89q27 0 53.5 -3t48.5 -9l-24 -137h-43q-113 0 -171.5 -51.5t-78.5 -161.5l-47 -265q-18 -104 -56 -186t-120 -111q88 -43 88 -159q0 -31 -8 -78l-52 -293q-8 -47 -8 -80 q0 -49 15.5 -78.5t44 -46t67.5 -21.5t86 -5h41l-24 -140q-45 -10 -88 -10q-158 0 -239 74.5t-81 226.5q0 20 2 41t6 45l56 316q6 33 6 53q0 55 -31 73.5t-94 18.5h-56z" />
<glyph unicode="|" horiz-adv-x="622" d="M57 -430l336 1925h178l-335 -1925h-179z" />
<glyph unicode="}" horiz-adv-x="757" d="M-88 -326l25 138h43q113 0 171 51t78 162l47 266q8 51 21.5 99t34 87t49.5 67.5t70 43.5q-86 39 -86 160q0 31 8 77l51 291q8 47 8 80q0 49 -15.5 79t-44 46t-67.5 21.5t-86 5.5h-41l25 139q45 10 88 10q158 0 238.5 -74.5t80.5 -226.5q0 -20 -2 -40.5t-6 -45.5l-55 -313 q-6 -31 -6 -54q0 -55 30.5 -73.5t94.5 -18.5h55l-25 -141h-55q-43 0 -71.5 -4t-47 -17.5t-30 -37t-17.5 -60.5l-69 -387q-29 -164 -129.5 -253t-262.5 -89q-27 0 -53.5 3t-48.5 9z" />
<glyph unicode="~" d="M109 512l6 31q14 70 35.5 129t55.5 102t83 67.5t119 24.5q68 0 132 -29.5t148 -93.5q59 -47 94 -64t80 -17q53 0 81 36.5t46 128.5l6 31h172l-6 -31q-14 -70 -35.5 -129t-55.5 -102t-83 -67.5t-119 -24.5q-68 0 -132 30t-148 93q-59 47 -94 64.5t-80 17.5q-53 0 -81 -37 t-46 -129l-6 -31h-172z" />
<glyph unicode="&#xa1;" horiz-adv-x="528" d="M8 -389l197 1010h160l-162 -1010h-195zM209 791l41 233h209l-41 -233h-209z" />
<glyph unicode="&#xa2;" d="M211 479q0 125 37 235.5t104.5 194.5t164.5 138.5t218 64.5l49 274h134l-50 -276q61 -10 115.5 -32.5t106.5 -63.5l-78 -117q-72 51 -170 64l-135 -775q59 0 113 18.5t106 51.5l65 -121q-68 -47 -146.5 -71.5t-164.5 -26.5l-47 -270h-133l49 280q-158 33 -248 143.5 t-90 288.5zM395 492q0 -227 180 -287l134 751q-76 -16 -134.5 -59t-98.5 -106.5t-60.5 -140t-20.5 -158.5z" />
<glyph unicode="&#xa3;" d="M129 0l25 139q135 78 199.5 180.5t64.5 262.5v24t-2 29h-219l26 147h172q-6 37 -12 73t-6 77q0 229 125 355t350 126q88 0 177 -25.5t149 -76.5l-76 -125q-53 37 -115.5 52t-128.5 15q-84 0 -140 -24.5t-91 -69.5t-50.5 -108.5t-15.5 -141.5q0 -53 12 -127h365l-27 -147 h-321q2 -23 2 -37v-27q0 -131 -52.5 -239.5t-162.5 -177.5h629l-27 -154h-850z" />
<glyph unicode="&#xa4;" d="M129 225l143 158q-53 59 -83.5 138t-30.5 171q0 90 30.5 169t83.5 140l-143 158l123 111l147 -170q53 29 114.5 44t127.5 15t126 -15.5t114 -43.5l149 170l123 -111l-143 -158q53 -61 83.5 -140t30.5 -169q0 -92 -30.5 -171t-83.5 -138l143 -158l-123 -110l-149 168 q-109 -57 -240 -58q-133 0 -242 58l-147 -168zM338 692q0 -147 78 -231t225 -84t225 84t78 231t-78 231.5t-225 84.5t-225 -84t-78 -232z" />
<glyph unicode="&#xa5;" d="M147 256l23 129h324l30 172h-323l22 129h252l-270 700h196l238 -688l477 688h207l-516 -700h248l-23 -129h-319l-31 -172h319l-22 -129h-320l-45 -256h-188l45 256h-324z" />
<glyph unicode="&#xa6;" horiz-adv-x="622" d="M57 -430l140 801h178l-139 -801h-179zM256 715l137 780h178l-137 -780h-178z" />
<glyph unicode="&#xa7;" horiz-adv-x="985" d="M6 -96l80 125q133 -109 307 -109q102 0 167 43t65 129q0 51 -35 86t-84 55l-178 74q-98 41 -158.5 110.5t-60.5 166.5q0 123 74.5 202.5t213.5 98.5q-72 35 -122 87t-50 140q0 82 32 142.5t87 98.5t129 56t158 18q92 0 183 -25.5t165 -72.5l-66 -125q-63 37 -129.5 55.5 t-150.5 18.5q-47 0 -89 -7t-74 -25.5t-50.5 -48.5t-18.5 -73q0 -47 33 -79.5t86 -55.5l168 -74q111 -47 175.5 -115.5t64.5 -168.5q0 -117 -75 -199t-191 -110q63 -37 103 -90.5t40 -122.5q0 -84 -32 -147.5t-87 -106.5t-131 -64.5t-162 -21.5q-104 0 -206.5 34.5 t-180.5 100.5zM285 598q0 -61 34.5 -102t94.5 -66l114 -47q100 16 162 74.5t62 154.5q0 66 -38 108t-106 71l-33 14q-16 2 -26 2h-21q-117 0 -180 -52.5t-63 -156.5z" />
<glyph unicode="&#xa8;" horiz-adv-x="1024" d="M356 1229l35 201h182l-34 -201h-183zM739 1229l35 201h182l-34 -201h-183z" />
<glyph unicode="&#xa9;" horiz-adv-x="1726" d="M145 707q0 166 56.5 302t157 232t237.5 149.5t301 53.5q162 0 300 -53.5t238.5 -149.5t157 -232.5t56.5 -301.5q0 -166 -56.5 -302.5t-157 -232.5t-238.5 -149.5t-300 -53.5q-164 0 -301 53.5t-237.5 149.5t-157 232.5t-56.5 302.5zM299 707q0 -139 44 -252t123 -191 t188.5 -120t242.5 -42t242.5 42t188.5 120t123 191t44 252t-44 250.5t-123 190.5t-188.5 121t-242.5 42t-242.5 -42t-188.5 -121t-123 -190.5t-44 -250.5zM555 711q0 90 27.5 160.5t77 118.5t116 74t146.5 26q72 0 131 -18.5t100 -47.5l-55 -125q-29 18 -69 30.5t-91 12.5 q-92 0 -151.5 -57t-59.5 -174q0 -61 16.5 -105.5t45 -71t65.5 -39t78 -12.5q49 0 93 12.5t75 34.5l57 -127q-39 -29 -102.5 -48t-134.5 -19q-74 0 -139.5 23.5t-116 70.5t-80 116.5t-29.5 164.5z" />
<glyph unicode="&#xaa;" horiz-adv-x="872" d="M119 471l22 121h631l-22 -121h-631zM182 985q0 82 21.5 161t63.5 141.5t104.5 100t146.5 37.5q168 0 215 -131l10 56q10 59 74 59h78l-121 -686h-84q-57 0 -47 57l8 47q-39 -55 -98 -87.5t-131 -32.5q-115 0 -177.5 77.5t-62.5 200.5zM336 1006q0 -76 37 -123t114 -47 q53 0 93.5 26.5t68 69.5t42 95t14.5 103q0 76 -36 121t-114 45q-57 0 -99 -25.5t-69 -66.5t-39 -93t-12 -105z" />
<glyph unicode="&#xab;" horiz-adv-x="1021" d="M98 532l334 437h189l-336 -451l184 -420h-176zM469 532l334 437h189l-336 -451l184 -420h-176z" />
<glyph unicode="&#xac;" horiz-adv-x="1198" d="M207 778l24 148h879l-86 -488h-166l60 340h-711z" />
<glyph unicode="&#xad;" horiz-adv-x="794" d="M84 449l29 167h606l-29 -167h-606z" />
<glyph unicode="&#xae;" horiz-adv-x="882" d="M211 1147q0 76 25.5 138.5t71.5 106.5t108.5 68.5t136.5 24.5t136.5 -24.5t108.5 -68.5t71.5 -106.5t25.5 -138.5t-25.5 -138.5t-71.5 -106.5t-108.5 -68.5t-136.5 -24.5t-136.5 24.5t-108.5 68.5t-71.5 106.5t-25.5 138.5zM291 1147q0 -123 72.5 -194.5t189.5 -71.5 t189.5 71.5t72.5 194.5t-72.5 194.5t-189.5 71.5t-189.5 -71.5t-72.5 -194.5zM420 985v342h141q63 0 98 -26.5t35 -75.5q0 -41 -23.5 -68t-60.5 -31l109 -141h-90l-82 111q-10 14 -19.5 18t-27.5 4v-133h-80zM500 1167h39q33 0 51 11.5t18 42.5q0 29 -18.5 40t-59.5 11h-30 v-105z" />
<glyph unicode="&#xaf;" horiz-adv-x="1024" d="M319 1266l25 135h649l-24 -135h-650z" />
<glyph unicode="&#xb0;" horiz-adv-x="825" d="M221 1126q0 133 83 210t216 77t216 -77t83 -210t-83 -209.5t-216 -76.5t-216 76.5t-83 209.5zM354 1126q0 -82 44 -125t122 -43t122 43t44 125t-44 125t-122 43t-122 -43t-44 -125z" />
<glyph unicode="&#xb1;" d="M80 61l27 152h905l-27 -152h-905zM201 751l27 152h366l70 391h172l-70 -391h367l-27 -152h-366l-70 -391h-172l70 391h-367z" />
<glyph unicode="&#xb2;" horiz-adv-x="851" d="M195 762l10 55q18 98 65.5 162.5t126.5 111.5l170 101q49 29 79 66.5t30 90.5q0 98 -133 99q-49 0 -96.5 -16.5t-85.5 -43.5l-58 109q55 37 126 59.5t140 22.5q123 0 195 -56.5t72 -152.5q0 -88 -48.5 -153.5t-140.5 -118.5l-176 -105q-39 -23 -61.5 -46.5t-32.5 -55.5 h369l-23 -129h-528z" />
<glyph unicode="&#xb3;" horiz-adv-x="851" d="M203 823l72 107q78 -57 184 -58q78 0 119 36t41 97q0 45 -38 71t-96 26h-114l22 125h113q74 0 108.5 34.5t34.5 90.5q0 45 -34.5 70.5t-94.5 25.5q-88 0 -172 -47l-57 110q55 31 120.5 49.5t131.5 18.5q53 0 101 -12.5t84 -37t57.5 -63.5t21.5 -92q0 -78 -39 -134 t-110 -79q121 -41 120 -164q0 -61 -25.5 -109t-68.5 -80t-101.5 -49.5t-123.5 -17.5q-70 0 -137.5 20.5t-118.5 61.5z" />
<glyph unicode="&#xb4;" horiz-adv-x="1024" d="M422 1202l250 326h227l-293 -326h-184z" />
<glyph unicode="&#xb5;" d="M18 -430l254 1454h179l-103 -582q-6 -35 -9 -61.5t-3 -50.5q0 -207 199 -207q70 0 122 28.5t89.5 78t61 113t36.5 132.5l96 549h178l-141 -803q-2 -10 -3 -19t-1 -16q0 -33 14 -44t60 -11h28l-22 -123q-16 -6 -40 -10t-42 -4q-76 0 -117 38t-41 111v13 q-49 -82 -129 -132.5t-180 -50.5q-76 0 -132.5 31t-82.5 90l-92 -524h-179z" />
<glyph unicode="&#xb6;" horiz-adv-x="1265" d="M170 963q0 225 137 337.5t379 112.5h557l-301 -1700h-186l276 1563h-198l-277 -1563h-186l155 879q-162 12 -259 110.5t-97 260.5z" />
<glyph unicode="&#xb7;" horiz-adv-x="438" d="M99 422l41 233h208l-41 -233h-208z" />
<glyph unicode="&#xb8;" horiz-adv-x="1024" d="M143 -426l47 100q31 -10 58.5 -15t62.5 -5q55 0 86 19.5t31 60.5q0 35 -35 49t-92 14h-59l90 203h137l-53 -117q74 -8 118 -44t44 -99q0 -51 -21.5 -89t-58.5 -62.5t-85 -37t-102 -12.5q-47 0 -87 9.5t-81 25.5z" />
<glyph unicode="&#xb9;" horiz-adv-x="851" d="M307 1421l303 137h136l-142 -796h-155l112 630l-194 -90z" />
<glyph unicode="&#xba;" horiz-adv-x="849" d="M119 471l22 121h639l-22 -121h-639zM186 1014q0 80 26 154.5t74 132t116.5 91t154.5 33.5q143 0 222 -81.5t79 -225.5q0 -80 -25.5 -154.5t-73.5 -132t-117 -91t-155 -33.5q-143 0 -222 81.5t-79 225.5zM340 1008q0 -76 39 -124t113 -48q55 0 95 24.5t65.5 65.5t39 93 t13.5 105q0 76 -39 124t-113 48q-55 0 -95 -24.5t-65.5 -65.5t-39 -93t-13.5 -105z" />
<glyph unicode="&#xbb;" horiz-adv-x="1021" d="M39 98l336 449l-185 422h177l194 -434l-334 -437h-188zM410 98l336 449l-185 422h177l194 -434l-334 -437h-188z" />
<glyph unicode="&#xbc;" horiz-adv-x="1906" d="M274 1249l303 137h136l-142 -796h-155l112 630l-194 -90zM432 0l919 1386h187l-920 -1386h-186zM1091 159l19 107l471 530h143l-92 -522h125l-21 -115h-125l-28 -159h-138l29 159h-383zM1278 274h217l53 305z" />
<glyph unicode="&#xbd;" horiz-adv-x="1906" d="M274 1249l303 137h136l-142 -796h-155l112 630l-194 -90zM418 0l919 1386h187l-920 -1386h-186zM1112 0l10 55q18 98 65.5 162.5t126.5 111.5l170 101q49 29 79 66.5t30 90.5q0 98 -133 99q-49 0 -96.5 -16.5t-85.5 -43.5l-58 109q55 37 126 59.5t140 22.5 q123 0 195 -56.5t72 -152.5q0 -88 -48.5 -153.5t-140.5 -118.5l-176 -105q-39 -23 -61.5 -46.5t-32.5 -55.5h369l-23 -129h-528z" />
<glyph unicode="&#xbe;" horiz-adv-x="1906" d="M170 651l72 107q78 -57 184 -58q78 0 119 36t41 97q0 45 -38 71t-96 26h-114l22 125h113q74 0 108.5 34.5t34.5 90.5q0 45 -34.5 70.5t-94.5 25.5q-88 0 -172 -47l-57 110q55 31 120.5 49.5t131.5 18.5q53 0 101 -12.5t84 -37t57.5 -63.5t21.5 -92q0 -78 -39 -134 t-110 -79q121 -41 120 -164q0 -61 -25.5 -109t-68.5 -80t-101.5 -49.5t-123.5 -17.5q-70 0 -137.5 20.5t-118.5 61.5zM457 0l919 1386h187l-920 -1386h-186zM1091 159l19 107l471 530h143l-92 -522h125l-21 -115h-125l-28 -159h-138l29 159h-383zM1278 274h217l53 305z" />
<glyph unicode="&#xbf;" horiz-adv-x="976" d="M-16 -113q0 80 22.5 138.5t62.5 106.5t95 89t121 86q43 29 69.5 55.5t44 57.5t29.5 69.5t25 92.5l8 34h164q0 -141 -61.5 -240.5t-174.5 -174.5q-45 -31 -85 -60.5t-69.5 -63.5t-47 -75t-17.5 -92q0 -84 62.5 -127t173.5 -43q96 0 177 30.5t158 88.5l76 -123 q-94 -74 -206.5 -113t-235.5 -39q-78 0 -148.5 18.5t-125 56.5t-86 94.5t-31.5 133.5zM451 791l41 233h208l-41 -233h-208z" />
<glyph unicode="&#xc0;" horiz-adv-x="1292" d="M-66 0l773 1413h194l277 -1413h-189l-71 393h-584l-207 -393h-193zM418 547h475l-123 663zM496 1819h221l195 -263h-183z" />
<glyph unicode="&#xc1;" horiz-adv-x="1292" d="M-66 0l773 1413h194l277 -1413h-189l-71 393h-584l-207 -393h-193zM418 547h475l-123 663zM717 1556l266 263h244l-305 -263h-205z" />
<glyph unicode="&#xc2;" horiz-adv-x="1292" d="M-66 0l773 1413h194l277 -1413h-189l-71 393h-584l-207 -393h-193zM418 547h475l-123 663zM471 1556l309 285h174l209 -285h-170l-137 156l-198 -156h-187z" />
<glyph unicode="&#xc3;" horiz-adv-x="1292" d="M-66 0l773 1413h194l277 -1413h-189l-71 393h-584l-207 -393h-193zM418 547h475l-123 663zM475 1556l5 25q16 102 70 161.5t147 59.5q51 0 90 -16.5t80 -46.5q29 -23 52 -34t50 -11q31 0 44 20.5t20 54.5l4 23h155l-4 -25q-16 -102 -70.5 -161.5t-146.5 -59.5 q-51 0 -91 16.5t-81 49.5q-29 23 -51.5 33t-48.5 10q-31 0 -44.5 -20.5t-19.5 -55.5l-4 -23h-156z" />
<glyph unicode="&#xc4;" horiz-adv-x="1292" d="M-66 0l773 1413h194l277 -1413h-189l-71 393h-584l-207 -393h-193zM418 547h475l-123 663zM547 1595l35 203h184l-35 -203h-184zM932 1595l35 203h184l-35 -203h-184z" />
<glyph unicode="&#xc5;" horiz-adv-x="1292" d="M-66 0l734 1339q-41 25 -67 68t-26 100q0 51 18.5 97.5t52.5 80t81 53t104 19.5q98 0 161 -54t63 -147q0 -76 -36 -134t-101 -89l260 -1333h-189l-71 393h-584l-207 -393h-193zM418 547h473l-121 663zM705 1516q0 -45 23.5 -75t74.5 -30q59 0 91 41t32 96q0 45 -24 75 t-75 30q-59 0 -90.5 -41t-31.5 -96z" />
<glyph unicode="&#xc6;" horiz-adv-x="1982" d="M-66 0l1074 1413h1038l-29 -158h-686l-82 -464h582l-29 -158h-581l-84 -475h698l-29 -158h-884l75 438h-512l-327 -438h-224zM598 592h426l119 670h-41z" />
<glyph unicode="&#xc7;" horiz-adv-x="1294" d="M143 575q0 180 51.5 338t147.5 276t237.5 186.5t321.5 68.5q115 0 215.5 -32t175.5 -101l-94 -133q-68 53 -141.5 74.5t-157.5 21.5q-141 0 -245.5 -55.5t-174 -149.5t-104.5 -219t-35 -266q0 -211 104.5 -328t311.5 -117q86 0 168 29t147 80l86 -139 q-86 -63 -190.5 -99.5t-212.5 -40.5l-39 -86q78 -10 117.5 -47t39.5 -96q0 -51 -21.5 -89t-58 -62.5t-85 -37t-101.5 -12.5q-47 0 -87 9.5t-81 25.5l49 104q31 -10 57.5 -15t61.5 -5q113 0 113 76q0 31 -33 45t-92 14h-59l81 184q-113 14 -200.5 62.5t-148 126.5 t-92.5 182.5t-32 226.5z" />
<glyph unicode="&#xc8;" horiz-adv-x="1150" d="M90 0l248 1413h876l-28 -158h-686l-82 -464h581l-28 -158h-582l-84 -475h699l-29 -158h-885zM475 1819h221l195 -263h-183z" />
<glyph unicode="&#xc9;" horiz-adv-x="1150" d="M90 0l248 1413h876l-28 -158h-686l-82 -464h581l-28 -158h-582l-84 -475h699l-29 -158h-885zM680 1556l266 263h244l-305 -263h-205z" />
<glyph unicode="&#xca;" horiz-adv-x="1150" d="M90 0l248 1413h876l-28 -158h-686l-82 -464h581l-28 -158h-582l-84 -475h699l-29 -158h-885zM450 1556l309 285h174l209 -285h-170l-137 156l-198 -156h-187z" />
<glyph unicode="&#xcb;" horiz-adv-x="1150" d="M90 0l248 1413h876l-28 -158h-686l-82 -464h581l-28 -158h-582l-84 -475h699l-29 -158h-885zM535 1595l35 203h184l-35 -203h-184zM920 1595l35 203h184l-35 -203h-184z" />
<glyph unicode="&#xcc;" horiz-adv-x="548" d="M90 0l248 1413h188l-247 -1413h-189zM125 1819h221l195 -263h-183z" />
<glyph unicode="&#xcd;" horiz-adv-x="548" d="M90 0l248 1413h188l-247 -1413h-189zM354 1556l266 263h244l-305 -263h-205z" />
<glyph unicode="&#xce;" horiz-adv-x="548" d="M90 0l248 1413h188l-247 -1413h-189zM98 1556l309 285h174l209 -285h-170l-137 156l-198 -156h-187z" />
<glyph unicode="&#xcf;" horiz-adv-x="548" d="M90 0l248 1413h188l-247 -1413h-189zM178 1595l35 203h184l-35 -203h-184zM563 1595l35 203h184l-35 -203h-184z" />
<glyph unicode="&#xd0;" horiz-adv-x="1415" d="M59 662l25 145h164l106 606h396q135 0 243.5 -40t185 -113.5t118.5 -180t42 -239.5q0 -195 -51 -349.5t-151.5 -264t-249 -168t-340.5 -58.5h-441l115 662h-162zM322 158h229q158 0 270.5 47t184 136t104.5 216t33 285q0 190 -104.5 301.5t-293.5 111.5h-231l-78 -448 h314l-25 -145h-315z" />
<glyph unicode="&#xd1;" horiz-adv-x="1411" d="M90 0l248 1413h201l469 -1151l200 1151h181l-248 -1413h-201l-469 1141l-201 -1141h-180zM544 1556l5 25q16 102 70 161.5t147 59.5q51 0 90 -16.5t80 -46.5q29 -23 52 -34t50 -11q31 0 44 20.5t20 54.5l4 23h155l-4 -25q-16 -102 -70.5 -161.5t-146.5 -59.5 q-51 0 -91 16.5t-81 49.5q-29 23 -51.5 33t-48.5 10q-31 0 -44.5 -20.5t-19.5 -55.5l-4 -23h-156z" />
<glyph unicode="&#xd2;" horiz-adv-x="1531" d="M143 575q0 172 48.5 329t141.5 276.5t228 191.5t307 72q137 0 247 -43t185.5 -123t115.5 -192.5t40 -249.5q0 -172 -49 -329t-142.5 -276.5t-228.5 -190.5t-307 -71q-137 0 -245.5 43t-184.5 122t-116 190.5t-40 250.5zM340 569q0 -203 102 -316.5t301 -113.5 q133 0 230.5 61.5t161 161t94.5 226.5t31 256q0 201 -102.5 315.5t-301.5 114.5q-131 0 -228.5 -60.5t-161 -160t-95 -226.5t-31.5 -258zM578 1819h221l195 -263h-183z" />
<glyph unicode="&#xd3;" horiz-adv-x="1531" d="M143 575q0 172 48.5 329t141.5 276.5t228 191.5t307 72q137 0 247 -43t185.5 -123t115.5 -192.5t40 -249.5q0 -172 -49 -329t-142.5 -276.5t-228.5 -190.5t-307 -71q-137 0 -245.5 43t-184.5 122t-116 190.5t-40 250.5zM340 569q0 -203 102 -316.5t301 -113.5 q133 0 230.5 61.5t161 161t94.5 226.5t31 256q0 201 -102.5 315.5t-301.5 114.5q-131 0 -228.5 -60.5t-161 -160t-95 -226.5t-31.5 -258zM813 1556l266 263h244l-305 -263h-205z" />
<glyph unicode="&#xd4;" horiz-adv-x="1531" d="M143 575q0 172 48.5 329t141.5 276.5t228 191.5t307 72q137 0 247 -43t185.5 -123t115.5 -192.5t40 -249.5q0 -172 -49 -329t-142.5 -276.5t-228.5 -190.5t-307 -71q-137 0 -245.5 43t-184.5 122t-116 190.5t-40 250.5zM340 569q0 -203 102 -316.5t301 -113.5 q133 0 230.5 61.5t161 161t94.5 226.5t31 256q0 201 -102.5 315.5t-301.5 114.5q-131 0 -228.5 -60.5t-161 -160t-95 -226.5t-31.5 -258zM569 1556l309 285h174l209 -285h-170l-137 156l-198 -156h-187z" />
<glyph unicode="&#xd5;" horiz-adv-x="1531" d="M143 575q0 172 48.5 329t141.5 276.5t228 191.5t307 72q137 0 247 -43t185.5 -123t115.5 -192.5t40 -249.5q0 -172 -49 -329t-142.5 -276.5t-228.5 -190.5t-307 -71q-137 0 -245.5 43t-184.5 122t-116 190.5t-40 250.5zM340 569q0 -203 102 -316.5t301 -113.5 q133 0 230.5 61.5t161 161t94.5 226.5t31 256q0 201 -102.5 315.5t-301.5 114.5q-131 0 -228.5 -60.5t-161 -160t-95 -226.5t-31.5 -258zM585 1556l5 25q16 102 70 161.5t147 59.5q51 0 90 -16.5t80 -46.5q29 -23 52 -34t50 -11q31 0 44 20.5t20 54.5l4 23h155l-4 -25 q-16 -102 -70.5 -161.5t-146.5 -59.5q-51 0 -91 16.5t-81 49.5q-29 23 -51.5 33t-48.5 10q-31 0 -44.5 -20.5t-19.5 -55.5l-4 -23h-156z" />
<glyph unicode="&#xd6;" horiz-adv-x="1531" d="M143 575q0 172 48.5 329t141.5 276.5t228 191.5t307 72q137 0 247 -43t185.5 -123t115.5 -192.5t40 -249.5q0 -172 -49 -329t-142.5 -276.5t-228.5 -190.5t-307 -71q-137 0 -245.5 43t-184.5 122t-116 190.5t-40 250.5zM340 569q0 -203 102 -316.5t301 -113.5 q133 0 230.5 61.5t161 161t94.5 226.5t31 256q0 201 -102.5 315.5t-301.5 114.5q-131 0 -228.5 -60.5t-161 -160t-95 -226.5t-31.5 -258zM654 1595l35 203h184l-35 -203h-184zM1039 1595l35 203h184l-35 -203h-184z" />
<glyph unicode="&#xd7;" d="M174 375l363 321l-250 324l112 96l250 -321l361 321l94 -117l-363 -323l250 -320l-114 -96l-248 318l-359 -320z" />
<glyph unicode="&#xd8;" horiz-adv-x="1531" d="M59 25l179 188q-45 74 -70 165t-25 197q0 172 48.5 329t141.5 276.5t228 191.5t307 72q246 0 398 -133l166 178l108 -100l-178 -191q94 -152 94 -362q0 -172 -49 -329t-142.5 -276.5t-228.5 -190.5t-307 -71q-123 0 -222 34t-173 97l-166 -176zM340 569q0 -115 35 -207 l764 814q-104 98 -283 98q-131 0 -228.5 -60.5t-161 -160t-95 -226.5t-31.5 -258zM461 236q102 -97 282 -97q133 0 230.5 61.5t161 161t94.5 226.5t31 256q0 117 -37 207z" />
<glyph unicode="&#xd9;" horiz-adv-x="1415" d="M174 438q0 86 14 170l142 805h188l-145 -838q-12 -68 -13 -129q0 -158 77 -232.5t235 -74.5q96 0 162.5 32t112.5 90t74 137t44 175l147 840h189l-158 -897q-23 -123 -68 -224.5t-116.5 -173t-169.5 -110.5t-225 -39q-233 0 -361.5 120t-128.5 349zM547 1819h221 l195 -263h-183z" />
<glyph unicode="&#xda;" horiz-adv-x="1415" d="M174 438q0 86 14 170l142 805h188l-145 -838q-12 -68 -13 -129q0 -158 77 -232.5t235 -74.5q96 0 162.5 32t112.5 90t74 137t44 175l147 840h189l-158 -897q-23 -123 -68 -224.5t-116.5 -173t-169.5 -110.5t-225 -39q-233 0 -361.5 120t-128.5 349zM737 1556l266 263h244 l-305 -263h-205z" />
<glyph unicode="&#xdb;" horiz-adv-x="1415" d="M174 438q0 86 14 170l142 805h188l-145 -838q-12 -68 -13 -129q0 -158 77 -232.5t235 -74.5q96 0 162.5 32t112.5 90t74 137t44 175l147 840h189l-158 -897q-23 -123 -68 -224.5t-116.5 -173t-169.5 -110.5t-225 -39q-233 0 -361.5 120t-128.5 349zM498 1556l309 285h174 l209 -285h-170l-137 156l-198 -156h-187z" />
<glyph unicode="&#xdc;" horiz-adv-x="1415" d="M174 438q0 86 14 170l142 805h188l-145 -838q-12 -68 -13 -129q0 -158 77 -232.5t235 -74.5q96 0 162.5 32t112.5 90t74 137t44 175l147 840h189l-158 -897q-23 -123 -68 -224.5t-116.5 -173t-169.5 -110.5t-225 -39q-233 0 -361.5 120t-128.5 349zM580 1595l35 203h184 l-35 -203h-184zM965 1595l35 203h184l-35 -203h-184z" />
<glyph unicode="&#xdd;" horiz-adv-x="1220" d="M190 1413h195l256 -706l500 706h205l-639 -872l-95 -541h-188l96 551zM647 1556l266 263h244l-305 -263h-205z" />
<glyph unicode="&#xde;" horiz-adv-x="1228" d="M90 0l248 1413h188l-43 -239h238q94 0 176 -25t142.5 -73t94 -118.5t33.5 -164.5q0 -123 -41 -217.5t-115.5 -159t-178 -97t-226.5 -32.5h-278l-49 -287h-189zM356 444h244q178 0 278.5 86t100.5 254q0 59 -20.5 102.5t-57.5 72t-87 43t-107 14.5h-250z" />
<glyph unicode="&#xdf;" horiz-adv-x="1206" d="M66 0l188 1065q35 193 158 301.5t309 108.5q86 0 157.5 -22.5t122 -67t79 -109t28.5 -148.5q0 -119 -57.5 -214t-163.5 -142q51 -14 92 -45t68.5 -74t43 -94t15.5 -106q0 -102 -35 -190.5t-97.5 -153t-150.5 -100.5t-192 -36q-135 0 -242 56l49 137q84 -39 193 -39 q70 0 123 26.5t90 72.5t56.5 107.5t19.5 129.5q0 100 -59.5 164.5t-164.5 64.5h-141l25 148h94q125 0 187.5 77.5t62.5 206.5q0 92 -56.5 144.5t-154.5 52.5q-66 0 -114 -23.5t-83 -65.5t-57.5 -99.5t-34.5 -124.5l-178 -1008h-180z" />
<glyph unicode="&#xe0;" horiz-adv-x="1204" d="M90 389q0 125 33 244t97.5 212t159.5 149.5t220 56.5q121 0 206 -48.5t126 -146.5l16 94q6 37 27.5 55.5t64.5 18.5h95l-181 -1024h-92q-41 0 -57.5 19.5t-9.5 54.5l14 86q-59 -86 -150.5 -136.5t-199.5 -50.5q-90 0 -160 32t-116 88.5t-69.5 132t-23.5 163.5zM276 408 q0 -129 62.5 -205t187.5 -76q86 0 154 44t113 114.5t68.5 157.5t23.5 173q0 133 -62.5 207t-189.5 74q-92 0 -159.5 -43t-111 -111.5t-65 -156.5t-21.5 -178zM370 1528h207l152 -326h-164z" />
<glyph unicode="&#xe1;" horiz-adv-x="1204" d="M90 389q0 125 33 244t97.5 212t159.5 149.5t220 56.5q121 0 206 -48.5t126 -146.5l16 94q6 37 27.5 55.5t64.5 18.5h95l-181 -1024h-92q-41 0 -57.5 19.5t-9.5 54.5l14 86q-59 -86 -150.5 -136.5t-199.5 -50.5q-90 0 -160 32t-116 88.5t-69.5 132t-23.5 163.5zM276 408 q0 -129 62.5 -205t187.5 -76q86 0 154 44t113 114.5t68.5 157.5t23.5 173q0 133 -62.5 207t-189.5 74q-92 0 -159.5 -43t-111 -111.5t-65 -156.5t-21.5 -178zM580 1202l250 326h227l-293 -326h-184z" />
<glyph unicode="&#xe2;" horiz-adv-x="1204" d="M90 389q0 125 33 244t97.5 212t159.5 149.5t220 56.5q121 0 206 -48.5t126 -146.5l16 94q6 37 27.5 55.5t64.5 18.5h95l-181 -1024h-92q-41 0 -57.5 19.5t-9.5 54.5l14 86q-59 -86 -150.5 -136.5t-199.5 -50.5q-90 0 -160 32t-116 88.5t-69.5 132t-23.5 163.5zM276 408 q0 -129 62.5 -205t187.5 -76q86 0 154 44t113 114.5t68.5 157.5t23.5 173q0 133 -62.5 207t-189.5 74q-92 0 -159.5 -43t-111 -111.5t-65 -156.5t-21.5 -178zM365 1202l311 328h174l193 -328h-168l-127 193l-201 -193h-182z" />
<glyph unicode="&#xe3;" horiz-adv-x="1204" d="M90 389q0 125 33 244t97.5 212t159.5 149.5t220 56.5q121 0 206 -48.5t126 -146.5l16 94q6 37 27.5 55.5t64.5 18.5h95l-181 -1024h-92q-41 0 -57.5 19.5t-9.5 54.5l14 86q-59 -86 -150.5 -136.5t-199.5 -50.5q-90 0 -160 32t-116 88.5t-69.5 132t-23.5 163.5zM276 408 q0 -129 62.5 -205t187.5 -76q86 0 154 44t113 114.5t68.5 157.5t23.5 173q0 133 -62.5 207t-189.5 74q-92 0 -159.5 -43t-111 -111.5t-65 -156.5t-21.5 -178zM362 1223l4 24q16 100 68.5 160.5t148.5 60.5q51 0 90 -16t80 -49q29 -23 51.5 -35t51.5 -12q35 0 48 21.5 t19 58.5l4 22h152l-4 -24q-16 -100 -68.5 -161t-148.5 -61q-51 0 -90 16.5t-80 49.5q-29 23 -51.5 35t-51.5 12q-35 0 -48 -21.5t-19 -58.5l-4 -22h-152z" />
<glyph unicode="&#xe4;" horiz-adv-x="1204" d="M90 389q0 125 33 244t97.5 212t159.5 149.5t220 56.5q121 0 206 -48.5t126 -146.5l16 94q6 37 27.5 55.5t64.5 18.5h95l-181 -1024h-92q-41 0 -57.5 19.5t-9.5 54.5l14 86q-59 -86 -150.5 -136.5t-199.5 -50.5q-90 0 -160 32t-116 88.5t-69.5 132t-23.5 163.5zM276 408 q0 -129 62.5 -205t187.5 -76q86 0 154 44t113 114.5t68.5 157.5t23.5 173q0 133 -62.5 207t-189.5 74q-92 0 -159.5 -43t-111 -111.5t-65 -156.5t-21.5 -178zM426 1229l35 201h182l-34 -201h-183zM809 1229l35 201h182l-34 -201h-183z" />
<glyph unicode="&#xe5;" horiz-adv-x="1204" d="M90 389q0 125 33 244t97.5 212t159.5 149.5t220 56.5q121 0 206 -48.5t126 -146.5l16 94q6 37 27.5 55.5t64.5 18.5h95l-181 -1024h-92q-41 0 -57.5 19.5t-9.5 54.5l14 86q-59 -86 -150.5 -136.5t-199.5 -50.5q-90 0 -160 32t-116 88.5t-69.5 132t-23.5 163.5zM276 408 q0 -129 62.5 -205t187.5 -76q86 0 154 44t113 114.5t68.5 157.5t23.5 173q0 133 -62.5 207t-189.5 74q-92 0 -159.5 -43t-111 -111.5t-65 -156.5t-21.5 -178zM487 1364q0 51 18.5 97t52 80t81 53.5t104.5 19.5q98 0 160.5 -54.5t62.5 -146.5q0 -53 -18.5 -98t-52 -79 t-81 -53.5t-104.5 -19.5q-98 0 -160.5 54.5t-62.5 146.5zM616 1372q0 -45 23.5 -74.5t74.5 -29.5q59 0 91 41t32 96q0 45 -23.5 74.5t-74.5 29.5q-59 0 -91 -41t-32 -96z" />
<glyph unicode="&#xe6;" horiz-adv-x="1703" d="M45 258q0 94 33 160.5t93 109.5t144 62.5t187 19.5h250l6 35q6 37 6 60q0 102 -66.5 149t-173.5 47q-78 0 -149.5 -26.5t-134.5 -67.5l-70 123q76 53 178.5 87t196.5 34q121 0 209 -46.5t129 -138.5q66 88 159 136.5t213 48.5q174 0 273.5 -100.5t99.5 -268.5 q0 -111 -35 -213h-690v-37q0 -154 81 -229.5t230 -75.5q135 0 248 82l74 -121q-74 -55 -163 -85t-189 -30q-156 0 -255.5 63.5t-142.5 180.5q-61 -111 -159.5 -175.5t-237.5 -64.5q-72 0 -135.5 17.5t-109.5 52.5t-72.5 87t-26.5 124zM217 272q0 -72 52.5 -108.5 t144.5 -36.5q123 0 200.5 73.5t98.5 190.5l14 88h-233q-61 0 -111.5 -10t-87.5 -33.5t-57.5 -63.5t-20.5 -100zM928 606h524q12 45 12 90q0 100 -59.5 152.5t-159.5 52.5q-66 0 -117 -22.5t-91 -62.5t-67.5 -94t-41.5 -116z" />
<glyph unicode="&#xe7;" horiz-adv-x="985" d="M94 416q0 133 41 248.5t116 201.5t181.5 135.5t237.5 49.5q84 0 155.5 -23.5t137.5 -77.5l-80 -121q-51 35 -105.5 51.5t-115.5 16.5q-92 0 -164 -39t-120 -104.5t-72.5 -149.5t-24.5 -176q0 -147 75.5 -224t223.5 -77q59 0 113.5 18.5t103.5 51.5l67 -125 q-119 -84 -272 -97l-41 -92q74 -8 117 -45t43 -98q0 -51 -21.5 -89t-58.5 -62.5t-85 -37t-102 -12.5q-47 0 -87 9.5t-81 25.5l48 100q31 -10 58 -15t62 -5q55 0 86 19.5t31 60.5q0 35 -34.5 49t-92.5 14h-59l80 183q-168 25 -264.5 138t-96.5 298z" />
<glyph unicode="&#xe8;" horiz-adv-x="1077" d="M94 424q0 125 37 238.5t105.5 199.5t168 137.5t224.5 51.5q174 0 273 -99.5t99 -269.5q0 -111 -34 -213h-697v-37q0 -154 84 -229.5t234 -75.5q135 0 248 82l73 -121q-74 -55 -163 -85t-189 -30q-215 0 -339 120t-124 331zM295 606h530q12 45 13 90q0 100 -60 152.5 t-160 52.5q-66 0 -117.5 -22.5t-92.5 -62.5t-70 -94t-43 -116zM356 1528h207l152 -326h-164z" />
<glyph unicode="&#xe9;" horiz-adv-x="1077" d="M94 424q0 125 37 238.5t105.5 199.5t168 137.5t224.5 51.5q174 0 273 -99.5t99 -269.5q0 -111 -34 -213h-697v-37q0 -154 84 -229.5t234 -75.5q135 0 248 82l73 -121q-74 -55 -163 -85t-189 -30q-215 0 -339 120t-124 331zM295 606h530q12 45 13 90q0 100 -60 152.5 t-160 52.5q-66 0 -117.5 -22.5t-92.5 -62.5t-70 -94t-43 -116zM567 1202l250 326h227l-293 -326h-184z" />
<glyph unicode="&#xea;" horiz-adv-x="1077" d="M94 424q0 125 37 238.5t105.5 199.5t168 137.5t224.5 51.5q174 0 273 -99.5t99 -269.5q0 -111 -34 -213h-697v-37q0 -154 84 -229.5t234 -75.5q135 0 248 82l73 -121q-74 -55 -163 -85t-189 -30q-215 0 -339 120t-124 331zM295 606h530q12 45 13 90q0 100 -60 152.5 t-160 52.5q-66 0 -117.5 -22.5t-92.5 -62.5t-70 -94t-43 -116zM307 1202l311 328h174l193 -328h-168l-127 193l-201 -193h-182z" />
<glyph unicode="&#xeb;" horiz-adv-x="1077" d="M94 424q0 125 37 238.5t105.5 199.5t168 137.5t224.5 51.5q174 0 273 -99.5t99 -269.5q0 -111 -34 -213h-697v-37q0 -154 84 -229.5t234 -75.5q135 0 248 82l73 -121q-74 -55 -163 -85t-189 -30q-215 0 -339 120t-124 331zM295 606h530q12 45 13 90q0 100 -60 152.5 t-160 52.5q-66 0 -117.5 -22.5t-92.5 -62.5t-70 -94t-43 -116zM381 1229l35 201h182l-34 -201h-183zM764 1229l35 201h182l-34 -201h-183z" />
<glyph unicode="&#xec;" horiz-adv-x="497" d="M70 0l180 1024h178l-180 -1024h-178zM80 1528h207l152 -326h-164z" />
<glyph unicode="&#xed;" horiz-adv-x="497" d="M70 0l180 1024h178l-180 -1024h-178zM272 1202l250 326h227l-293 -326h-184z" />
<glyph unicode="&#xee;" horiz-adv-x="497" d="M17 1202l311 328h174l193 -328h-168l-127 193l-201 -193h-182zM70 0l180 1024h178l-180 -1024h-178z" />
<glyph unicode="&#xef;" horiz-adv-x="497" d="M70 0l180 1024h178l-180 -1024h-178zM88 1229l35 201h182l-34 -201h-183zM471 1229l35 201h182l-34 -201h-183z" />
<glyph unicode="&#xf0;" horiz-adv-x="1144" d="M90 401q0 117 34 222.5t97.5 184.5t156.5 125t210 46q123 0 214 -65.5t120 -178.5q-14 158 -76 271.5t-176 195.5l-224 -172l-73 98l186 144q-78 41 -184 78l55 145q150 -53 260 -123l217 168l74 -98l-186 -144q129 -104 199.5 -245.5t70.5 -331.5q0 -137 -30.5 -271.5 t-97.5 -240t-169 -171t-244 -65.5q-203 0 -318.5 114t-115.5 314zM276 393q0 -121 68 -193.5t188 -72.5q80 0 141.5 36t102.5 95t61.5 135t20.5 158q0 125 -67.5 199.5t-184.5 74.5q-84 0 -145.5 -36.5t-102.5 -97t-61.5 -138.5t-20.5 -160z" />
<glyph unicode="&#xf1;" horiz-adv-x="1177" d="M70 0l180 1024h94q39 0 56.5 -19.5t11.5 -54.5l-15 -80q57 78 143.5 129.5t192.5 51.5q150 0 235 -83t85 -231q0 -51 -11 -108l-110 -629h-178l110 629q4 25 6 43t2 41q0 184 -192 184q-70 0 -126 -29.5t-99 -79t-71 -113t-40 -128.5l-96 -547h-178zM360 1223l4 24 q16 100 68.5 160.5t148.5 60.5q51 0 90 -16t80 -49q29 -23 51.5 -35t51.5 -12q35 0 48 21.5t19 58.5l4 22h152l-4 -24q-16 -100 -68.5 -161t-148.5 -61q-51 0 -90 16.5t-80 49.5q-29 23 -51.5 35t-51.5 12q-35 0 -48 -21.5t-19 -58.5l-4 -22h-152z" />
<glyph unicode="&#xf2;" horiz-adv-x="1179" d="M94 422q0 127 38 240.5t108.5 199.5t172 137.5t228.5 51.5q102 0 184 -32t140.5 -90.5t89 -141t30.5 -185.5q0 -125 -37.5 -238.5t-108.5 -200.5t-172 -138.5t-226 -51.5q-102 0 -184.5 32t-140.5 90.5t-90 141t-32 185.5zM281 418q0 -131 70.5 -211t195.5 -80 q88 0 153.5 41t109.5 108.5t66.5 153.5t22.5 176q0 133 -69.5 212t-194.5 79q-90 0 -156.5 -41t-110.5 -108.5t-65.5 -153.5t-21.5 -176zM393 1528h207l152 -326h-164z" />
<glyph unicode="&#xf3;" horiz-adv-x="1179" d="M94 422q0 127 38 240.5t108.5 199.5t172 137.5t228.5 51.5q102 0 184 -32t140.5 -90.5t89 -141t30.5 -185.5q0 -125 -37.5 -238.5t-108.5 -200.5t-172 -138.5t-226 -51.5q-102 0 -184.5 32t-140.5 90.5t-90 141t-32 185.5zM281 418q0 -131 70.5 -211t195.5 -80 q88 0 153.5 41t109.5 108.5t66.5 153.5t22.5 176q0 133 -69.5 212t-194.5 79q-90 0 -156.5 -41t-110.5 -108.5t-65.5 -153.5t-21.5 -176zM598 1202l250 326h227l-293 -326h-184z" />
<glyph unicode="&#xf4;" horiz-adv-x="1179" d="M94 422q0 127 38 240.5t108.5 199.5t172 137.5t228.5 51.5q102 0 184 -32t140.5 -90.5t89 -141t30.5 -185.5q0 -125 -37.5 -238.5t-108.5 -200.5t-172 -138.5t-226 -51.5q-102 0 -184.5 32t-140.5 90.5t-90 141t-32 185.5zM281 418q0 -131 70.5 -211t195.5 -80 q88 0 153.5 41t109.5 108.5t66.5 153.5t22.5 176q0 133 -69.5 212t-194.5 79q-90 0 -156.5 -41t-110.5 -108.5t-65.5 -153.5t-21.5 -176zM356 1202l311 328h174l193 -328h-168l-127 193l-201 -193h-182z" />
<glyph unicode="&#xf5;" horiz-adv-x="1179" d="M94 422q0 127 38 240.5t108.5 199.5t172 137.5t228.5 51.5q102 0 184 -32t140.5 -90.5t89 -141t30.5 -185.5q0 -125 -37.5 -238.5t-108.5 -200.5t-172 -138.5t-226 -51.5q-102 0 -184.5 32t-140.5 90.5t-90 141t-32 185.5zM281 418q0 -131 70.5 -211t195.5 -80 q88 0 153.5 41t109.5 108.5t66.5 153.5t22.5 176q0 133 -69.5 212t-194.5 79q-90 0 -156.5 -41t-110.5 -108.5t-65.5 -153.5t-21.5 -176zM354 1223l4 24q16 100 68.5 160.5t148.5 60.5q51 0 90 -16t80 -49q29 -23 51.5 -35t51.5 -12q35 0 48 21.5t19 58.5l4 22h152l-4 -24 q-16 -100 -68.5 -161t-148.5 -61q-51 0 -90 16.5t-80 49.5q-29 23 -51.5 35t-51.5 12q-35 0 -48 -21.5t-19 -58.5l-4 -22h-152z" />
<glyph unicode="&#xf6;" horiz-adv-x="1179" d="M94 422q0 127 38 240.5t108.5 199.5t172 137.5t228.5 51.5q102 0 184 -32t140.5 -90.5t89 -141t30.5 -185.5q0 -125 -37.5 -238.5t-108.5 -200.5t-172 -138.5t-226 -51.5q-102 0 -184.5 32t-140.5 90.5t-90 141t-32 185.5zM281 418q0 -131 70.5 -211t195.5 -80 q88 0 153.5 41t109.5 108.5t66.5 153.5t22.5 176q0 133 -69.5 212t-194.5 79q-90 0 -156.5 -41t-110.5 -108.5t-65.5 -153.5t-21.5 -176zM411 1229l35 201h182l-34 -201h-183zM794 1229l35 201h182l-34 -201h-183z" />
<glyph unicode="&#xf7;" d="M172 608l27 152h905l-27 -152h-905zM449 209l41 233h208l-41 -233h-208zM576 926l41 233h208l-41 -233h-208z" />
<glyph unicode="&#xf8;" horiz-adv-x="1179" d="M41 33l123 129q-70 109 -70 260q0 127 38 240.5t108.5 199.5t172 137.5t228.5 51.5q172 0 285 -88l114 120l97 -92l-121 -127q70 -109 69 -262q0 -125 -37.5 -238.5t-108.5 -200.5t-172 -138.5t-226 -51.5q-172 0 -289 88l-115 -120zM281 418q0 -61 16 -117l510 537 q-66 59 -172 59q-90 0 -156.5 -41t-110.5 -108.5t-65.5 -153.5t-21.5 -176zM371 186q70 -59 176 -59q88 0 153.5 41t109.5 108.5t66.5 153.5t22.5 176q0 63 -18 117z" />
<glyph unicode="&#xf9;" horiz-adv-x="1157" d="M123 289q0 29 2 54.5t8 64.5l109 616h178l-107 -606q-10 -57 -10 -103q0 -188 195 -188q68 0 122 31.5t94 84t64.5 116t36.5 128.5l94 537h178l-180 -1024h-90q-39 0 -57.5 19.5t-11.5 54.5l14 80q-53 -82 -135 -131.5t-187 -49.5q-154 0 -235.5 83t-81.5 233zM397 1528 h207l152 -326h-164z" />
<glyph unicode="&#xfa;" horiz-adv-x="1157" d="M123 289q0 29 2 54.5t8 64.5l109 616h178l-107 -606q-10 -57 -10 -103q0 -188 195 -188q68 0 122 31.5t94 84t64.5 116t36.5 128.5l94 537h178l-180 -1024h-90q-39 0 -57.5 19.5t-11.5 54.5l14 80q-53 -82 -135 -131.5t-187 -49.5q-154 0 -235.5 83t-81.5 233zM572 1202 l250 326h227l-293 -326h-184z" />
<glyph unicode="&#xfb;" horiz-adv-x="1157" d="M123 289q0 29 2 54.5t8 64.5l109 616h178l-107 -606q-10 -57 -10 -103q0 -188 195 -188q68 0 122 31.5t94 84t64.5 116t36.5 128.5l94 537h178l-180 -1024h-90q-39 0 -57.5 19.5t-11.5 54.5l14 80q-53 -82 -135 -131.5t-187 -49.5q-154 0 -235.5 83t-81.5 233zM336 1202 l311 328h174l193 -328h-168l-127 193l-201 -193h-182z" />
<glyph unicode="&#xfc;" horiz-adv-x="1157" d="M123 289q0 29 2 54.5t8 64.5l109 616h178l-107 -606q-10 -57 -10 -103q0 -188 195 -188q68 0 122 31.5t94 84t64.5 116t36.5 128.5l94 537h178l-180 -1024h-90q-39 0 -57.5 19.5t-11.5 54.5l14 80q-53 -82 -135 -131.5t-187 -49.5q-154 0 -235.5 83t-81.5 233zM397 1229 l35 201h182l-34 -201h-183zM780 1229l35 201h182l-34 -201h-183z" />
<glyph unicode="&#xfd;" horiz-adv-x="1028" d="M-33 -432l25 137h55q45 0 76 9.5t54.5 31t45 54t47.5 79.5l64 111l-223 1034h180l158 -848l462 848h187l-676 -1186q-41 -72 -76 -125t-75 -88t-90 -52t-122 -17q-53 0 -92 12zM496 1202l250 326h227l-293 -326h-184z" />
<glyph unicode="&#xfe;" horiz-adv-x="1208" d="M-6 -430l336 1898h178l-105 -591q59 80 149.5 127t195.5 47q90 0 158.5 -32t115.5 -87t71.5 -132t24.5 -165q0 -125 -32.5 -244t-97 -212t-161 -149.5t-221.5 -56.5t-208 49.5t-122 137.5l-104 -590h-178zM319 408q0 -129 62.5 -205t191.5 -76q92 0 160 42t112 111.5 t65.5 157.5t21.5 178q0 129 -63.5 205t-188.5 76q-84 0 -151.5 -44t-113.5 -113.5t-71 -156.5t-25 -175z" />
<glyph unicode="&#xff;" horiz-adv-x="1028" d="M-33 -432l25 137h55q45 0 76 9.5t54.5 31t45 54t47.5 79.5l64 111l-223 1034h180l158 -848l462 848h187l-676 -1186q-41 -72 -76 -125t-75 -88t-90 -52t-122 -17q-53 0 -92 12zM317 1229l35 201h182l-34 -201h-183zM700 1229l35 201h182l-34 -201h-183z" />
<glyph unicode="&#x152;" horiz-adv-x="2119" d="M143 575q0 172 45 329t131.5 276.5t212 191.5t285.5 72q180 0 298 -76t179 -221l47 266h842l-29 -158h-663l-82 -464h559l-29 -158h-559l-84 -475h676l-28 -158h-850l30 172q-82 -96 -190.5 -149.5t-249.5 -53.5q-127 0 -226.5 43t-170 122t-107.5 190.5t-37 250.5z M340 569q0 -203 98 -316.5t291 -113.5q127 0 220 61.5t154.5 161t91.5 226.5t30 256q0 201 -98.5 315.5t-290.5 114.5q-127 0 -220.5 -60.5t-155 -160t-91 -226.5t-29.5 -258z" />
<glyph unicode="&#x153;" horiz-adv-x="1855" d="M94 422q0 125 36 238.5t103.5 200.5t165 138.5t222.5 51.5q137 0 235 -58.5t148 -169.5q66 106 167 167t236 61q174 0 273.5 -100.5t99.5 -268.5q0 -111 -35 -213h-690v-37q0 -154 81 -229.5t230 -75.5q135 0 248 82l74 -121q-74 -55 -163.5 -85t-189.5 -30 q-154 0 -251 61.5t-142 174.5q-66 -104 -172 -170t-248 -66q-98 0 -177 32t-135 90.5t-86 141t-30 185.5zM281 418q0 -131 70.5 -211t195.5 -80q88 0 153.5 41t109.5 108.5t66.5 153.5t22.5 176q0 133 -69.5 212t-194.5 79q-90 0 -156.5 -41t-110.5 -108.5t-65.5 -153.5 t-21.5 -176zM1079 606h525q12 45 12 90q0 100 -59.5 152.5t-159.5 52.5q-66 0 -117 -22.5t-91 -62.5t-67.5 -94t-42.5 -116z" />
<glyph unicode="&#x178;" horiz-adv-x="1220" d="M190 1413h195l256 -706l500 706h205l-639 -872l-95 -541h-188l96 551zM471 1595l35 203h184l-35 -203h-184zM856 1595l35 203h184l-35 -203h-184z" />
<glyph unicode="&#x2c6;" horiz-adv-x="1024" d="M293 1202l311 328h174l193 -328h-168l-127 193l-201 -193h-182z" />
<glyph unicode="&#x2dc;" horiz-adv-x="1024" d="M301 1223l4 24q16 100 68.5 160.5t148.5 60.5q51 0 90 -16t80 -49q29 -23 51.5 -35t51.5 -12q35 0 48 21.5t19 58.5l4 22h152l-4 -24q-16 -100 -68.5 -161t-148.5 -61q-51 0 -90 16.5t-80 49.5q-29 23 -51.5 35t-51.5 12q-35 0 -48 -21.5t-19 -58.5l-4 -22h-152z" />
<glyph unicode="&#x2000;" horiz-adv-x="920" />
<glyph unicode="&#x2001;" horiz-adv-x="1841" />
<glyph unicode="&#x2002;" horiz-adv-x="920" />
<glyph unicode="&#x2003;" horiz-adv-x="1841" />
<glyph unicode="&#x2004;" horiz-adv-x="613" />
<glyph unicode="&#x2005;" horiz-adv-x="460" />
<glyph unicode="&#x2006;" horiz-adv-x="306" />
<glyph unicode="&#x2007;" horiz-adv-x="306" />
<glyph unicode="&#x2008;" horiz-adv-x="230" />
<glyph unicode="&#x2009;" horiz-adv-x="368" />
<glyph unicode="&#x200a;" horiz-adv-x="102" />
<glyph unicode="&#x2010;" horiz-adv-x="794" d="M84 449l29 167h606l-29 -167h-606z" />
<glyph unicode="&#x2011;" horiz-adv-x="794" d="M84 449l29 167h606l-29 -167h-606z" />
<glyph unicode="&#x2012;" horiz-adv-x="794" d="M84 449l29 167h606l-29 -167h-606z" />
<glyph unicode="&#x2013;" horiz-adv-x="1024" d="M-10 451l28 163h1024l-28 -163h-1024z" />
<glyph unicode="&#x2014;" horiz-adv-x="2048" d="M-10 451l28 163h2048l-28 -163h-2048z" />
<glyph unicode="&#x2018;" horiz-adv-x="428" d="M184 911l23 123q25 139 66.5 245.5t101.5 176.5l92 -63q-45 -55 -79 -127t-44 -138h78l-39 -217h-199z" />
<glyph unicode="&#x2019;" horiz-adv-x="428" d="M188 932q45 53 79 125.5t44 138.5h-78l39 217h199l-22 -123q-25 -139 -67 -245.5t-101 -176.5z" />
<glyph unicode="&#x201a;" horiz-adv-x="428" d="M-19 -262q45 53 79 125.5t44 138.5h-78l39 217h199l-22 -123q-25 -139 -67 -245.5t-101 -176.5z" />
<glyph unicode="&#x201c;" horiz-adv-x="776" d="M184 911l23 123q25 139 66.5 245.5t101.5 176.5l92 -63q-45 -55 -79 -127t-44 -138h78l-39 -217h-199zM532 911l23 123q25 139 66.5 245.5t101.5 176.5l92 -63q-45 -55 -79 -127t-44 -138h78l-39 -217h-199z" />
<glyph unicode="&#x201d;" horiz-adv-x="776" d="M188 932q45 53 79 125.5t44 138.5h-78l39 217h199l-22 -123q-25 -139 -67 -245.5t-101 -176.5zM536 932q45 53 79 125.5t44 138.5h-78l39 217h199l-22 -123q-25 -139 -67 -245.5t-101 -176.5z" />
<glyph unicode="&#x201e;" horiz-adv-x="776" d="M-19 -262q45 53 79 125.5t44 138.5h-78l39 217h199l-22 -123q-25 -139 -67 -245.5t-101 -176.5zM327 -262q45 53 79 125.5t44 138.5h-78l39 217h199l-22 -123q-25 -139 -67 -245.5t-101 -176.5z" />
<glyph unicode="&#x2022;" horiz-adv-x="724" d="M98 532q0 55 21.5 104.5t58.5 85.5t85 57.5t104 21.5q55 0 103 -21.5t85 -57.5t58.5 -85t21.5 -105q0 -55 -21.5 -103t-58.5 -85t-85 -57.5t-103 -20.5t-103.5 20.5t-85.5 57.5t-58.5 85t-21.5 103z" />
<glyph unicode="&#x2026;" horiz-adv-x="1413" d="M25 0l41 233h208l-41 -233h-208zM512 0l41 233h208l-41 -233h-208zM1000 0l41 233h208l-41 -233h-208z" />
<glyph unicode="&#x202f;" horiz-adv-x="368" />
<glyph unicode="&#x2039;" horiz-adv-x="651" d="M98 532l334 437h189l-336 -451l184 -420h-176z" />
<glyph unicode="&#x203a;" horiz-adv-x="651" d="M39 98l336 449l-185 422h177l194 -434l-334 -437h-188z" />
<glyph unicode="&#x205f;" horiz-adv-x="460" />
<glyph unicode="&#x20ac;" d="M76 461l57 147h119q2 41 7 82t13 82h-145l57 148h127q37 104 95.5 195t137.5 156.5t178 103.5t220 38q186 0 315 -104l-75 -133q-53 37 -113.5 55t-136.5 18q-78 0 -143.5 -25.5t-118 -69.5t-93 -104.5t-67.5 -129.5h494l-58 -148h-481q-20 -88 -23 -164h461l-57 -147 h-402q16 -147 99.5 -235.5t249.5 -88.5q68 0 135 22.5t125 59.5l67 -139q-68 -47 -161 -77t-183 -30q-119 0 -211 35t-158.5 99.5t-104.5 153.5t-48 200h-178z" />
<glyph unicode="&#x2122;" horiz-adv-x="1193" d="M170 1329v84h436v-84h-168v-399h-100v399h-168zM670 930v483h110l146 -278l141 278h111v-483h-97v340l-114 -226h-88l-113 216v-330h-96z" />
<glyph unicode="&#x25fc;" horiz-adv-x="1024" d="M0 0v1024h1024v-1024h-1024z" />
<glyph unicode="&#xfb01;" horiz-adv-x="1153" d="M104 879l27 145h168l20 109q33 178 125.5 260t268.5 82q27 0 56.5 -3.5t51.5 -9.5l-24 -137h-47q-66 0 -110 -11t-72.5 -36t-46 -66t-27.5 -100l-17 -88h606l-180 -1024h-178l154 879h-426l-156 -879h-178l155 879h-170zM938 1229l35 205h186l-35 -205h-186z" />
<glyph unicode="&#xfb02;" horiz-adv-x="1232" d="M104 879l27 145h168l20 109q33 178 125.5 260t268.5 82q27 0 56.5 -3.5t51.5 -9.5l-24 -137h-47q-66 0 -110 -11t-72.5 -36t-46 -66t-27.5 -100l-17 -88h268l-26 -145h-266l-156 -879h-178l155 879h-170zM761 188q0 41 9 88l209 1192h178l-209 -1189q-6 -37 -6 -60 q0 -47 29.5 -63.5t95.5 -16.5h14l-25 -139q-41 -10 -77 -10q-104 0 -161 48t-57 150z" />
<glyph unicode="&#xfb03;" horiz-adv-x="1759" d="M104 879l27 145h168l20 109q33 178 125.5 260t268.5 82q27 0 56.5 -3.5t51.5 -9.5l-24 -137h-47q-66 0 -110 -11t-72.5 -36t-46 -66t-27.5 -100l-17 -88h428l21 109q33 178 125 260t268 82q27 0 56.5 -3.5t51.5 -9.5l-24 -137h-47q-66 0 -110 -11t-72.5 -36t-46 -66 t-27.5 -100l-17 -88h607l-181 -1024h-178l154 879h-426l-156 -879h-178l156 879h-428l-156 -879h-178l155 879h-170zM1544 1229l35 205h186l-34 -205h-187z" />
<glyph unicode="&#xfb04;" horiz-adv-x="1839" d="M104 879l27 145h168l20 109q33 178 125.5 260t268.5 82q27 0 56.5 -3.5t51.5 -9.5l-24 -137h-47q-66 0 -110 -11t-72.5 -36t-46 -66t-27.5 -100l-17 -88h428l21 109q33 178 125 260t268 82q27 0 56.5 -3.5t51.5 -9.5l-24 -137h-47q-66 0 -110 -11t-72.5 -36t-46 -66 t-27.5 -100l-17 -88h269l-27 -145h-266l-156 -879h-178l156 879h-428l-156 -879h-178l155 879h-170zM1368 188q0 41 9 88l209 1192h178l-209 -1189q-6 -37 -6 -60q0 -47 29.5 -63.5t95.5 -16.5h14l-25 -139q-41 -10 -77 -10q-104 0 -161 48t-57 150z" />
</font>
</defs>
</svg>
